<svg xmlns="http://www.w3.org/2000/svg" viewBox="0 0 43.71 43.71"><defs><style>.cls-1{fill:#8a8a8a;}</style></defs><title>资源 9</title><g id="图层_2" data-name="图层 2"><g id="图层_1-2" data-name="图层 1"><path class="cls-1" d="M10.38,0a10.38,10.38,0,1,0,0,20.76h7.28a3.1,3.1,0,0,0,3.1-3.09V10.38A10.39,10.39,0,0,0,10.38,0Zm8.38,17.66a1.1,1.1,0,0,1-1.1,1.09H10.38a8.38,8.38,0,1,1,8.38-8.38Z"/><path class="cls-1" d="M26,20.76h7.28A10.38,10.38,0,1,0,22.95,10.38v7.28A3.1,3.1,0,0,0,26,20.76Zm-1.1-10.38a8.38,8.38,0,1,1,8.38,8.38H26a1.1,1.1,0,0,1-1.1-1.09Z"/><path class="cls-1" d="M17.66,23H10.38A10.38,10.38,0,1,0,20.76,33.33V26A3.1,3.1,0,0,0,17.66,23Zm1.1,10.38A8.38,8.38,0,1,1,10.38,25h7.28A1.1,1.1,0,0,1,18.76,26Z"/><path class="cls-1" d="M33.33,23H26A3.1,3.1,0,0,0,22.95,26v7.28A10.38,10.38,0,1,0,33.33,23Zm0,18.76a8.39,8.39,0,0,1-8.38-8.38V26A1.1,1.1,0,0,1,26,25h7.28a8.38,8.38,0,0,1,0,16.76Z"/></g></g></svg>