<svg xmlns="http://www.w3.org/2000/svg" viewBox="0 0 43.71 43.71"><defs><style>.cls-1{fill:#f44;}</style></defs><title>资源 4</title><g id="图层_2" data-name="图层 2"><g id="图层_1-2" data-name="图层 1"><path class="cls-1" d="M20.76,10.38v7.29a3.1,3.1,0,0,1-3.1,3.09H10.38A10.38,10.38,0,1,1,20.76,10.38Z"/><path class="cls-1" d="M43.71,10.38A10.4,10.4,0,0,1,33.33,20.76H26A3.1,3.1,0,0,1,23,17.67V10.38a10.38,10.38,0,0,1,20.76,0Z"/><path class="cls-1" d="M20.76,26v7.28A10.38,10.38,0,1,1,10.38,23h7.28A3.1,3.1,0,0,1,20.76,26Z"/><path class="cls-1" d="M43.71,33.33a10.38,10.38,0,0,1-20.76,0V26A3.1,3.1,0,0,1,26,23h7.29A10.4,10.4,0,0,1,43.71,33.33Z"/></g></g></svg>