<svg xmlns="http://www.w3.org/2000/svg" viewBox="0 0 43.2 43.48"><defs><style>.cls-1{fill:#8a8a8a;}</style></defs><title>资源 7</title><g id="图层_2" data-name="图层 2"><g id="图层_1-2" data-name="图层 1"><path class="cls-1" d="M43.16,42.21A22.51,22.51,0,0,0,27.33,26.7a14,14,0,1,0-11.45,0A22.51,22.51,0,0,0,0,42.21a1,1,0,0,0,.69,1.24,1,1,0,0,0,.27,0,1,1,0,0,0,1-.73,20.43,20.43,0,0,1,39.28,0,1,1,0,0,0,1.92-.55ZM9.63,14a12,12,0,1,1,12,12A12,12,0,0,1,9.63,14Z"/><path class="cls-1" d="M29.62,15.46a1,1,0,0,0-1.22.71,6.89,6.89,0,0,1-6.8,4.94,6.89,6.89,0,0,1-6.8-4.94,1,1,0,0,0-1.94.51,8.89,8.89,0,0,0,8.74,6.43,8.89,8.89,0,0,0,8.74-6.43A1,1,0,0,0,29.62,15.46Z"/></g></g></svg>