<svg xmlns="http://www.w3.org/2000/svg" viewBox="0 0 43.2 43.49"><defs><style>.cls-1{fill:#f44;}</style></defs><title>资源 6</title><g id="图层_2" data-name="图层 2"><g id="图层_1-2" data-name="图层 1"><path class="cls-1" d="M41.93,43.45a1,1,0,0,0,.54,0ZM1,43.49a.8.8,0,0,0,.27,0H.73A.84.84,0,0,0,1,43.49Z"/><path class="cls-1" d="M43.16,42.21a22.5,22.5,0,0,0-15.83-15.5,14,14,0,1,0-11.45,0A22.51,22.51,0,0,0,0,42.22a1,1,0,0,0,.69,1.23H42.47A1,1,0,0,0,43.16,42.21ZM12.86,16.68a1,1,0,1,1,1.94-.5,6.9,6.9,0,0,0,6.8,4.94,6.89,6.89,0,0,0,6.8-4.94,1,1,0,1,1,1.94.5,8.89,8.89,0,0,1-8.74,6.44A8.9,8.9,0,0,1,12.86,16.68Z"/></g></g></svg>