<svg xmlns="http://www.w3.org/2000/svg" viewBox="0 0 42.96 38.55"><defs><style>.cls-1{fill:#8a8a8a;}</style></defs><title>资源 8</title><g id="图层_2" data-name="图层 2"><g id="图层_1-2" data-name="图层 1"><path class="cls-1" d="M42.29,11.86A3.35,3.35,0,0,0,40,10.53L9.94,6.48a3.26,3.26,0,0,0-2.15.45L7.23,2.85A3.32,3.32,0,0,0,4,0H1A1,1,0,0,0,1,2H4A1.31,1.31,0,0,1,5.25,3.13l1,7.26h0L8.34,25.47a3.39,3.39,0,0,0,3.34,2.91h26.1a3.36,3.36,0,0,0,3.33-2.83l1.8-11.14A3.35,3.35,0,0,0,42.29,11.86ZM39.13,25.23a1.37,1.37,0,0,1-1.35,1.15H11.68a1.38,1.38,0,0,1-1.36-1.18L8.21,9.93A1.3,1.3,0,0,1,9.68,8.46l30.09,4.05a1.37,1.37,0,0,1,1.17,1.58Z"/><path class="cls-1" d="M17.75,29.89a4.33,4.33,0,1,0,4.33,4.33A4.33,4.33,0,0,0,17.75,29.89Zm0,6.65a2.33,2.33,0,1,1,2.33-2.33A2.33,2.33,0,0,1,17.75,36.55Z"/><path class="cls-1" d="M33.55,29.89a4.33,4.33,0,1,0,4.33,4.33A4.33,4.33,0,0,0,33.55,29.89Zm0,6.65a2.33,2.33,0,1,1,2.33-2.33A2.33,2.33,0,0,1,33.55,36.55Z"/></g></g></svg>