<svg xmlns="http://www.w3.org/2000/svg" viewBox="0 0 42.95 38.55"><defs><style>.cls-1{fill:#f44;}</style></defs><title>资源 5</title><g id="图层_2" data-name="图层 2"><g id="图层_1-2" data-name="图层 1"><path class="cls-1" d="M42.91,14.41,41.1,25.55a3.35,3.35,0,0,1-3.33,2.83H11.68a3.39,3.39,0,0,1-3.35-2.91L6.25,10.39l-1-7.26A1.32,1.32,0,0,0,4,2H1A1,1,0,0,1,1,0H4A3.33,3.33,0,0,1,7.23,2.86l.56,4.07a3.28,3.28,0,0,1,2.15-.45l30.09,4a3.37,3.37,0,0,1,2.26,1.33A3.42,3.42,0,0,1,42.91,14.41Z"/><path class="cls-1" d="M22.07,34.22a4.33,4.33,0,1,1-4.32-4.32A4.33,4.33,0,0,1,22.07,34.22Z"/><path class="cls-1" d="M37.87,34.22a4.32,4.32,0,1,1-4.33-4.32A4.33,4.33,0,0,1,37.87,34.22Z"/></g></g></svg>