<svg xmlns="http://www.w3.org/2000/svg" viewBox="0 0 42.47 43.46"><defs><style>.cls-1{fill:#f44;}</style></defs><title>资源 3</title><g id="图层_2" data-name="图层 2"><g id="图层_1-2" data-name="图层 1"><path class="cls-1" d="M42.1,16.55,21.86.2s-.06,0-.08,0A.76.76,0,0,0,21.6.07L21.42,0h-.37a.6.6,0,0,0-.19.06.7.7,0,0,0-.17.09L20.6.2.37,16.55A1,1,0,0,0,1,18.32a1,1,0,0,0,.63-.22l2-1.62V37.34a6.19,6.19,0,0,0,6.24,6.12H32.59a6.19,6.19,0,0,0,6.24-6.12V16.48l2,1.62a1,1,0,1,0,1.26-1.55Zm-20,6.3a4.77,4.77,0,1,1,4.76-4.77A4.78,4.78,0,0,1,22.14,22.85Z"/></g></g></svg>