<svg xmlns="http://www.w3.org/2000/svg" viewBox="0 0 42.47 43.46"><defs><style>.cls-1{fill:#8a8a8a;}</style></defs><title>资源 10</title><g id="图层_2" data-name="图层 2"><g id="图层_1-2" data-name="图层 1"><path class="cls-1" d="M42.1,16.55,21.86.21l-.08,0L21.6.07,21.42,0l-.19,0L21,0l-.18.06-.17.09-.09,0L.37,16.55a1,1,0,0,0,1.26,1.56l2-1.62V37.35a6.18,6.18,0,0,0,6.24,6.11H32.59a6.18,6.18,0,0,0,6.24-6.11V16.48l2,1.62a1,1,0,0,0,1.26-1.56Zm-5.27,20.8a4.18,4.18,0,0,1-4.24,4.11H9.87a4.18,4.18,0,0,1-4.24-4.11V14.87l15.6-12.6,15.6,12.6Z"/><path class="cls-1" d="M16,18.09A6.11,6.11,0,1,0,22.14,12,6.11,6.11,0,0,0,16,18.09Zm10.21,0A4.11,4.11,0,1,1,22.14,14,4.11,4.11,0,0,1,26.25,18.09Z"/></g></g></svg>